<svg width="28" height="35" viewBox="0 0 28 35" fill="none" xmlns="http://www.w3.org/2000/svg">
<path d="M3.83545 14.9471C3.83545 14.9471 7.2971 13.5485 10.7839 13.8971C15.0164 14.3204 17.7267 17.9281 19.5008 22.614C20.8541 26.1888 20.1981 33.0743 20.1981 33.0743" stroke="#E0E0E0" stroke-width="1.5"/>
<path d="M0.84668 1.51904L5.37947 1.51904" stroke="#E0E0E0" stroke-width="1.5" stroke-linecap="round"/>
<path d="M17.0601 1.51904L22.6389 1.51904" stroke="#E0E0E0" stroke-width="1.5" stroke-linecap="round"/>
<path d="M3.64844 2.04126L3.64844 33.9677" stroke="#E0E0E0" stroke-width="1.5" stroke-linecap="round"/>
<path d="M3.8103 33.4229H25.4282" stroke="#E0E0E0" stroke-width="1.5" stroke-linecap="round"/>
<path d="M25.4282 33.4229V29.2387" stroke="#E0E0E0" stroke-width="1.5" stroke-linecap="round"/>
<path d="M23.8591 28.7158H26.9972" stroke="#E0E0E0" stroke-width="1.5" stroke-linecap="round"/>
<path d="M3.83545 18.0851C3.83545 18.0851 14.613 19.5143 18.1312 15.6443C21.6179 11.8089 19.8494 1.69336 19.8494 1.69336" stroke="#E0E0E0" stroke-width="1.5"/>
<line x1="3.8103" y1="23.6074" x2="19.8494" y2="23.6074" stroke="#E0E0E0" stroke-width="1.5"/>
<path d="M2.48536 2.75331L0.460245 3.74076L0.284512 4.06712H0.251039V3.02946H0.284512L0.460245 3.2554L2.10879 2.43113L1.99163 2.33071H0.460245L0.284512 2.66126H0.251039V1H0.914679L0.846578 1.17042V1.84954L3.17992 1.84954L3.35565 1.51899H3.38912V2.66126H3.35565L3.3254 2.33071H3.17992H2.19665L3.17992 3.16335L3.35565 3.04201H3.38912V3.77005H3.35565L3.17992 3.33908L2.48536 2.75331Z" fill="#E0E0E0"/>
<path d="M0.251039 5.38289H0.560664C0.322169 5.31176 0.209198 5.08163 0.209198 4.85988C0.209198 4.39125 0.744765 4.14021 1.1841 4.14021C1.53975 4.14021 1.75732 4.35778 1.89121 4.65904C1.96234 4.82222 1.97908 5.06071 1.97908 5.22808C1.97908 5.27829 1.97489 5.3285 1.97071 5.38289C2.44351 5.37871 2.66109 5.29502 2.66109 4.78875L2.28452 4.28247H2.67782C2.70711 4.54188 2.72385 4.79711 2.72385 5.04816C2.72385 5.48749 2.46862 5.80967 1.97908 5.80967H0.439324L0.280328 6.09837H0.251039V5.38289ZM1.1046 5.38289H1.77824C1.83263 5.24481 1.85355 5.08582 1.85355 4.93937C1.85355 4.63393 1.78242 4.50423 1.41841 4.50423C1.07949 4.50423 0.368194 4.67577 0.368194 5.06071C0.368194 5.10255 0.372378 5.14439 0.389115 5.18205C0.548111 5.33268 0.887024 5.38289 1.1046 5.38289Z" fill="#E0E0E0"/>
<path d="M0.267776 7.12201L0.64853 7.46929H0.284512C0.255223 7.35214 0.209198 7.16804 0.209198 6.98812C0.209198 6.64084 0.418404 6.47347 0.698739 6.47347H2.61925L2.61925 6.26845H2.68201C2.68201 6.53205 2.97071 6.77054 3.31381 6.81657V6.90444H2.70293V7.29774H2.61925V6.90444H0.451877C0.330537 6.90444 0.267776 6.99649 0.267776 7.12201Z" fill="#E0E0E0"/>
<path d="M1.7615 9.36999V8.02271C1.32217 8.02271 0.397483 8.18589 0.397483 8.76329C0.397483 8.79677 0.401667 8.82606 0.410036 8.85535C0.585768 9.00179 0.891208 9.02271 1.11297 9.02271H1.15481V9.35744C0.723844 9.27376 0.209198 8.99761 0.209198 8.49551C0.209198 7.89718 0.95397 7.66287 1.45606 7.66287C1.97908 7.66287 2.74477 7.94739 2.74477 8.55827C2.74477 9.04363 2.20084 9.31141 1.7615 9.36999ZM1.84519 8.93066C2.14226 8.85535 2.58996 8.71727 2.58996 8.36162C2.58996 8.31978 2.58159 8.27794 2.56904 8.2361C2.39749 8.0771 2.08786 8.03108 1.84519 8.02271V8.93066Z" fill="#E0E0E0"/>
<path d="M2.58996 10.6822C2.58996 10.4479 2.37657 10.2805 2.12971 10.2805H0.439324L0.280328 10.5734H0.251039V9.56083H0.280328L0.439324 9.85371H2.42259L2.53556 9.65288H2.56904L2.70711 10.1466V10.2805H2.39749C2.64435 10.4269 2.74895 10.6236 2.74895 10.883C2.74895 11.0002 2.69875 11.088 2.66109 11.1466H2.08368L2.58996 10.6822Z" fill="#E0E0E0"/>
<path d="M3.36402 12.0798C3.21339 12.0798 3.09205 11.9585 3.09205 11.8079C3.09205 11.6572 3.21339 11.5359 3.36402 11.5359C3.51465 11.5359 3.63599 11.6572 3.63599 11.8079C3.63599 11.9585 3.51465 12.0798 3.36402 12.0798ZM2.53556 11.3894H2.56904L2.70293 11.8832V12.0171H0.439324L0.280328 12.3099H0.251039L0.251039 11.2974H0.280328L0.439324 11.5903H2.42259L2.53556 11.3894Z" fill="#E0E0E0"/>
<path d="M0.439324 14.3411L0.280328 14.6298H0.251039V13.6172H0.280328L0.439324 13.9101H2.19665C2.43515 13.9101 2.58996 13.793 2.58996 13.5628C2.58996 13.3285 2.37657 13.1612 2.12971 13.1612H0.439324L0.280328 13.454H0.251039V12.4415H0.280328L0.439324 12.7344H2.42259L2.53556 12.5335H2.56904L2.70293 13.0273V13.1612H2.39749C2.64435 13.3076 2.74477 13.5043 2.74477 13.7637C2.74477 14.1904 2.40167 14.3411 2.11715 14.3411H0.439324Z" fill="#E0E0E0"/>
<path d="M0.251039 16.0475H0.560664C0.322169 15.9763 0.209198 15.7462 0.209198 15.5245C0.209198 15.0558 0.744765 14.8048 1.1841 14.8048C1.53975 14.8048 1.75732 15.0224 1.89121 15.3236C1.96234 15.4868 1.97908 15.7253 1.97908 15.8927C1.97908 15.9429 1.97489 15.9931 1.97071 16.0475C2.44351 16.0433 2.66109 15.9596 2.66109 15.4533L2.28452 14.9471H2.67782C2.70711 15.2065 2.72385 15.4617 2.72385 15.7127C2.72385 16.1521 2.46862 16.4743 1.97908 16.4743H0.439324L0.280328 16.763H0.251039V16.0475ZM1.1046 16.0475H1.77824C1.83263 15.9094 1.85355 15.7504 1.85355 15.604C1.85355 15.2985 1.78242 15.1688 1.41841 15.1688C1.07949 15.1688 0.368194 15.3404 0.368194 15.7253C0.368194 15.7671 0.372378 15.809 0.389115 15.8466C0.548111 15.9973 0.887024 16.0475 1.1046 16.0475Z" fill="#E0E0E0"/>
<path d="M-7.62939e-06 16.9958H0.154804V18.3891H-7.62939e-06V16.9958Z" fill="#E0E0E0"/>
<path d="M0.267776 19.4292L0.64853 19.7765H0.284512C0.255223 19.6593 0.209198 19.4752 0.209198 19.2953C0.209198 18.948 0.418404 18.7806 0.698739 18.7806H2.61925V18.5756H2.68201C2.68201 18.8392 2.97071 19.0777 3.31381 19.1237V19.2116H2.70293V19.6049H2.61925V19.2116H0.451877C0.330537 19.2116 0.267776 19.3037 0.267776 19.4292Z" fill="#E0E0E0"/>
<path d="M0.251039 21.2531H0.560664C0.322169 21.182 0.209198 20.9518 0.209198 20.7301C0.209198 20.2615 0.744765 20.0104 1.1841 20.0104C1.53975 20.0104 1.75732 20.228 1.89121 20.5292C1.96234 20.6924 1.97908 20.9309 1.97908 21.0983C1.97908 21.1485 1.97489 21.1987 1.97071 21.2531C2.44351 21.2489 2.66109 21.1652 2.66109 20.659L2.28452 20.1527H2.67782C2.70711 20.4121 2.72385 20.6673 2.72385 20.9184C2.72385 21.3577 2.46862 21.6799 1.97908 21.6799H0.439324L0.280328 21.9686H0.251039V21.2531ZM1.1046 21.2531H1.77824C1.83263 21.115 1.85355 20.956 1.85355 20.8096C1.85355 20.5041 1.78242 20.3744 1.41841 20.3744C1.07949 20.3744 0.368194 20.546 0.368194 20.9309C0.368194 20.9728 0.372378 21.0146 0.389115 21.0523C0.548111 21.2029 0.887024 21.2531 1.1046 21.2531Z" fill="#E0E0E0"/>
<path d="M0.267776 22.9922L0.64853 23.3395H0.284512C0.255223 23.2223 0.209198 23.0382 0.209198 22.8583C0.209198 22.511 0.418404 22.3437 0.698739 22.3437H2.61925V22.1387H2.68201C2.68201 22.4023 2.97071 22.6408 3.31381 22.6868V22.7746H2.70293V23.1679H2.61925V22.7746H0.451877C0.330537 22.7746 0.267776 22.8667 0.267776 22.9922Z" fill="#E0E0E0"/>
<path d="M0.267776 24.361L0.64853 24.7083H0.284512C0.255223 24.5912 0.209198 24.4071 0.209198 24.2272C0.209198 23.8799 0.418404 23.7125 0.698739 23.7125H2.61925V23.5075H2.68201C2.68201 23.7711 2.97071 24.0096 3.31381 24.0556V24.1435H2.70293V24.5368H2.61925V24.1435H0.451877C0.330537 24.1435 0.267776 24.2355 0.267776 24.361Z" fill="#E0E0E0"/>
<path d="M2.74477 25.7973C2.74477 26.3831 2.02092 26.6299 1.52719 26.6299C0.999995 26.6299 0.209198 26.3663 0.209198 25.7345C0.209198 25.132 0.95397 24.9019 1.45188 24.9019C1.97071 24.9019 2.74477 25.1822 2.74477 25.7973ZM0.410036 26.0944C0.581584 26.2366 0.903761 26.2659 1.12133 26.2659C1.52301 26.2659 2.58996 26.1362 2.58996 25.6007C2.58996 25.563 2.58577 25.5128 2.56904 25.4751C2.38075 25.3036 2.03766 25.2617 1.79079 25.2617C1.34309 25.2617 0.397483 25.4249 0.397483 26.0023C0.397483 26.0316 0.401667 26.0693 0.410036 26.0944Z" fill="#E0E0E0"/>
<path d="M2.74477 27.824C2.74477 28.4098 2.02092 28.6566 1.52719 28.6566C0.999995 28.6566 0.209198 28.393 0.209198 27.7612C0.209198 27.1587 0.95397 26.9286 1.45188 26.9286C1.97071 26.9286 2.74477 27.2089 2.74477 27.824ZM0.410036 28.1211C0.581584 28.2633 0.903761 28.2926 1.12133 28.2926C1.52301 28.2926 2.58996 28.1629 2.58996 27.6273C2.58996 27.5897 2.58577 27.5395 2.56904 27.5018C2.38075 27.3303 2.03766 27.2884 1.79079 27.2884C1.34309 27.2884 0.397483 27.4516 0.397483 28.029C0.397483 28.0583 0.401667 28.096 0.410036 28.1211Z" fill="#E0E0E0"/>
<path d="M0.251039 30.177H0.560664C0.322169 30.1059 0.209198 29.8758 0.209198 29.654C0.209198 29.1854 0.744765 28.9343 1.1841 28.9343C1.53975 28.9343 1.75732 29.1519 1.89121 29.4532C1.96234 29.6164 1.97908 29.8549 1.97908 30.0222C1.97908 30.0724 1.97489 30.1226 1.97071 30.177C2.44351 30.1728 2.66109 30.0892 2.66109 29.5829L2.28452 29.0766H2.67782C2.70711 29.336 2.72385 29.5913 2.72385 29.8423C2.72385 30.2816 2.46862 30.6038 1.97908 30.6038H0.439324L0.280328 30.8925H0.251039V30.177ZM1.1046 30.177H1.77824C1.83263 30.039 1.85355 29.88 1.85355 29.7335C1.85355 29.4281 1.78242 29.2984 1.41841 29.2984C1.07949 29.2984 0.368194 29.4699 0.368194 29.8549C0.368194 29.8967 0.372378 29.9385 0.389115 29.9762C0.548111 30.1268 0.887024 30.177 1.1046 30.177Z" fill="#E0E0E0"/>
<path d="M2.58996 32.1421C2.58996 31.9078 2.37657 31.7404 2.12971 31.7404H0.439324L0.280328 32.0333H0.251039V31.0207H0.280328L0.439324 31.3136H2.42259L2.53556 31.1128H2.56904L2.70711 31.6065V31.7404H2.39749C2.64435 31.8869 2.74895 32.0835 2.74895 32.3429C2.74895 32.4601 2.69875 32.5479 2.66109 32.6065H2.08368L2.58996 32.1421Z" fill="#E0E0E0"/>
<path d="M0.267776 33.6527L0.64853 34H0.284512C0.255223 33.8828 0.209198 33.6987 0.209198 33.5188C0.209198 33.1715 0.418404 33.0042 0.698739 33.0042H2.61925V32.7992H2.68201C2.68201 33.0628 2.97071 33.3013 3.31381 33.3473V33.4351H2.70293V33.8285H2.61925V33.4351H0.451877C0.330537 33.4351 0.267776 33.5272 0.267776 33.6527Z" fill="#E0E0E0"/>
</svg>
