<svg width="102" height="102" viewBox="0 0 102 102" fill="none" xmlns="http://www.w3.org/2000/svg">
<circle cx="51" cy="51" r="51" fill="#E0E0E0"/>
<path d="M84.7826 53.017C84.1326 48.917 80.6326 48.557 77.6626 50.167C77.4926 47.307 77.2126 44.467 76.9426 41.687C76.9026 41.287 76.7026 40.997 76.4326 40.817C75.8926 33.937 70.7726 29.197 64.4526 26.537C58.0426 23.847 49.8526 21.617 42.5726 21.897C43.8326 15.117 36.8526 10.847 30.8726 14.127C28.3326 15.517 25.0726 18.167 25.1526 21.357C25.2026 23.637 26.5626 26.217 28.5926 27.397C27.2026 28.687 25.9626 30.157 24.9726 31.847C22.1926 36.597 20.9726 44.007 24.1626 48.877C21.4926 48.257 18.7126 51.187 18.1526 53.977C17.2326 58.537 20.5826 63.877 25.2526 64.767C25.3426 64.787 25.4126 64.767 25.4926 64.767C26.2726 68.587 27.4326 72.347 29.0626 75.987C33.7626 86.457 41.2126 88.717 52.2026 88.437C61.3326 88.207 68.7126 83.887 73.2526 75.897C75.6426 71.687 76.8826 67.1469 77.4326 62.477C81.8026 60.977 85.5926 58.117 84.7826 53.017ZM20.6126 57.617C20.1626 56.277 20.1926 54.807 20.7026 53.477C21.2826 51.937 22.9826 50.357 24.4226 51.697C24.3026 55.237 24.5026 58.767 25.0426 62.247C23.0726 61.497 21.2426 59.507 20.6126 57.617ZM54.1126 85.997C50.0926 86.317 44.7126 86.387 40.8526 85.237C34.9726 83.487 32.0426 77.497 30.0226 72.177C27.2426 64.837 26.2926 57.067 26.8826 49.327C26.9026 49.247 26.9026 49.157 26.9026 49.067C26.9526 48.397 27.0026 47.727 27.0826 47.057C27.0926 47.037 27.1126 47.017 27.1326 46.997C28.1926 45.367 29.0226 43.627 29.6126 41.787C34.9726 45.777 41.6826 46.837 48.2626 47.907C57.1626 49.347 66.1426 49.747 75.1426 49.277C75.8026 65.167 73.1526 84.457 54.1126 85.997ZM82.4226 55.767C81.8026 57.947 79.7026 59.117 77.6926 59.887C77.8526 57.547 77.8726 55.197 77.7926 52.837C77.8326 52.807 77.8826 52.787 77.9226 52.757C78.9626 51.907 80.5026 51.077 81.6726 51.927C82.7326 52.687 82.7626 54.577 82.4226 55.767Z" fill="#1B1D26"/>
<path d="M66.9426 68.177C66.9426 69.437 65.6926 70.457 64.1526 70.457C62.6126 70.457 61.3625 69.437 61.3625 68.177C61.3625 66.917 62.6126 65.897 64.1526 65.897C65.6926 65.897 66.9426 66.917 66.9426 68.177Z" fill="#F896B2"/>
<path d="M40.5026 68.177C40.5026 69.437 39.2526 70.457 37.7126 70.457C36.1726 70.457 34.9226 69.437 34.9226 68.177C34.9226 66.917 36.1726 65.897 37.7126 65.897C39.2526 65.897 40.5026 66.917 40.5026 68.177Z" fill="#F896B2"/>
<path d="M67.9026 53.6269C66.3826 52.4569 64.4026 52.5869 62.5826 52.6469C60.7026 52.7069 58.7526 52.8369 57.2626 54.0869C56.6826 54.5769 57.5226 55.4069 58.0926 54.9169C59.9326 53.3569 65.3626 53.1369 67.3126 54.6369C67.9126 55.0969 68.5026 54.0769 67.9026 53.6269Z" fill="#1B1D26"/>
<path d="M42.9526 54.8169C39.4426 53.0969 35.6126 52.7869 31.8826 53.9669C31.1626 54.1969 31.4726 55.3269 32.1926 55.0969C35.6226 54.0069 39.1226 54.2369 42.3625 55.8269C43.0325 56.1569 43.6326 55.1469 42.9526 54.8169Z" fill="#1B1D26"/>
<path d="M67.4526 60.807C67.0126 57.577 61.1426 57.787 59.7926 60.037C59.7526 60.097 59.7426 60.157 59.7426 60.217C59.6926 60.337 59.6926 60.487 59.8026 60.617C61.1826 62.187 62.6426 63.0269 64.7626 62.7269C65.7626 62.5969 67.6426 62.177 67.4526 60.807ZM60.5326 60.317C60.9026 59.837 61.6826 59.487 62.5626 59.317C62.3026 59.907 62.1726 60.667 62.3926 61.257C62.5226 61.607 62.7426 61.847 62.9926 62.007C62.9726 62.007 62.9426 61.997 62.9226 61.997C61.9226 61.757 61.1826 61.047 60.5326 60.317ZM66.4026 60.997C66.2426 61.757 65.1526 62.0369 64.1726 62.0769C64.5026 61.9269 64.7826 61.6469 64.9226 61.1969C65.0926 60.6169 65.0626 59.9269 64.7826 59.3869C64.7626 59.3369 64.7226 59.297 64.6926 59.247C65.7926 59.427 66.6226 59.967 66.4026 60.997Z" fill="#1B1D26"/>
<path d="M36.7523 62.7371C38.8823 63.0371 40.3423 62.1971 41.7123 60.6271C41.8223 60.4971 41.8323 60.3471 41.7723 60.2271C41.7723 60.1671 41.7623 60.1071 41.7223 60.0471C40.3623 57.7871 34.5023 57.5871 34.0623 60.8171C33.8723 62.1771 35.7523 62.5971 36.7523 62.7371ZM38.6023 61.9771C38.5823 61.9871 38.5523 61.9871 38.5323 61.9871C38.7823 61.8271 39.0023 61.5871 39.1323 61.2371C39.3523 60.6471 39.2223 59.8871 38.9623 59.2971C39.8423 59.4771 40.6223 59.8171 40.9923 60.2971C40.3223 61.0471 39.5823 61.7571 38.6023 61.9771ZM36.8223 59.2471C36.7923 59.2971 36.7623 59.3371 36.7323 59.3871C36.4523 59.9271 36.4123 60.6171 36.5923 61.1971C36.7223 61.6371 37.0123 61.9271 37.3423 62.0771C36.3523 62.0371 35.2723 61.7571 35.1123 60.9971C34.8923 59.9671 35.7123 59.4271 36.8223 59.2471Z" fill="#1B1D26"/>
<path d="M49.8526 69.787C49.8226 70.117 49.7026 72.367 49.2726 72.627C49.3426 72.587 49.0226 70.347 49.0426 69.927C49.1226 68.057 49.6826 66.187 50.0926 64.367C50.1226 64.247 50.1026 64.137 50.0626 64.037C50.4526 61.387 50.7026 58.487 48.1826 56.817C47.5526 56.397 46.9626 57.417 47.5926 57.827C49.9226 59.367 49.1126 62.527 48.7726 64.807C48.7726 64.827 48.7726 64.837 48.7726 64.857C48.4026 66.417 47.9926 67.997 47.8826 69.597C47.8126 70.687 47.7026 72.657 48.4426 73.557C50.2426 75.767 50.9726 70.587 51.0426 69.767C51.0926 69.037 49.9126 69.037 49.8526 69.787Z" fill="#1B1D26"/>
<path d="M67.7825 66.247C67.5625 66.017 67.3325 65.787 67.1125 65.547C66.5825 65.007 65.7525 65.837 66.2825 66.377C66.5025 66.607 66.7326 66.837 66.9526 67.077C67.4826 67.627 68.3125 66.787 67.7825 66.247Z" fill="#1B1D26"/>
<path d="M69.9926 65.627C69.9226 65.467 69.8626 65.297 69.7926 65.137C69.5126 64.447 68.3826 64.747 68.6626 65.447C68.7326 65.607 68.7926 65.777 68.8626 65.937C69.1326 66.627 70.2726 66.327 69.9926 65.627Z" fill="#1B1D26"/>
<path d="M33.3626 65.3669C33.0626 65.7069 32.8526 66.067 32.7126 66.507C32.4826 67.227 33.6126 67.537 33.8426 66.817C33.9226 66.577 34.0226 66.3869 34.1926 66.1969C34.6926 65.6369 33.8626 64.7969 33.3626 65.3669Z" fill="#1B1D26"/>
<path d="M35.7225 66.8569C35.7225 66.9169 35.7225 66.9769 35.7225 67.0369C35.2525 67.6269 36.0825 68.4569 36.5525 67.8669C36.8025 67.5569 36.9425 67.2569 36.9025 66.8469C36.8225 66.1169 35.6525 66.1069 35.7225 66.8569Z" fill="#1B1D26"/>
<path d="M52.5726 77.217C52.2726 77.477 51.9226 77.697 51.5526 77.887C51.5026 77.837 51.4426 77.787 51.3826 77.767C51.3726 77.767 51.3626 77.757 51.3526 77.757C51.3326 77.747 51.3126 77.757 51.2926 77.747C51.0426 77.597 50.8326 77.397 50.5226 77.287C50.1526 77.157 49.7526 77.097 49.3526 77.067C49.0126 77.047 48.6826 77.057 48.4026 77.267C48.3326 77.317 48.2726 77.377 48.2226 77.437C47.9126 77.637 47.6926 77.947 47.6626 78.327C47.6526 78.337 47.6426 78.357 47.6326 78.377C47.3926 78.297 47.1526 78.197 46.9326 78.077C46.2726 77.697 45.8026 78.777 46.4526 79.147C46.8626 79.387 47.3226 79.527 47.8026 79.627C47.7926 79.747 47.8126 79.867 47.8926 79.997C48.3226 80.657 48.9226 81.287 49.7826 81.187C50.6326 81.087 51.2926 80.067 51.7126 79.407C51.7726 79.307 51.8026 79.197 51.8026 79.087C52.3526 78.837 52.8526 78.517 53.2726 78.157C53.8426 77.677 53.1526 76.727 52.5726 77.217Z" fill="#1B1D26"/>
</svg>
