<svg width="102" height="102" viewBox="0 0 102 102" fill="none" xmlns="http://www.w3.org/2000/svg">
<circle cx="51" cy="51" r="51" fill="#E0E0E0"/>
<path d="M86.5412 55.2274C85.3612 52.2174 82.8312 51.1374 80.4212 51.4674C80.9312 47.5574 80.1812 43.1274 79.5312 40.1174C78.2012 33.9574 75.6312 27.0074 69.6112 24.2474C69.6612 23.9274 69.5912 23.5874 69.2712 23.2974C64.7012 19.0874 59.0712 17.1074 52.9212 16.5374C49.2312 16.1974 45.5712 16.5774 41.8812 16.5774C36.7412 16.5674 33.1412 14.7574 28.4212 13.4274C17.1612 10.2574 12.4012 25.5174 19.0212 32.8974C20.9412 35.0374 23.1112 36.6874 25.4412 37.9274C24.9912 39.4174 24.6512 40.9174 24.4012 42.4474C24.2312 42.5874 24.0912 42.7774 24.0412 43.0674C23.4712 46.4374 23.1812 49.8174 23.1812 53.1774C20.5412 51.8974 16.8912 53.3874 16.6312 56.9674C16.3312 61.0674 20.3612 66.2274 24.6512 66.0474C25.4212 69.2974 26.4912 72.4974 27.8812 75.6074C32.5812 86.0774 40.0312 88.3374 51.0212 88.0574C60.1512 87.8274 67.5312 83.5074 72.0712 75.5174C73.4412 73.1174 74.4112 70.6074 75.1112 68.0274C80.7412 68.6874 88.8512 61.1374 86.5412 55.2274ZM19.5312 59.5374C18.9612 58.3574 18.5612 56.6974 19.6112 55.6174C20.9412 54.2474 22.6212 55.1974 23.2812 56.5974C23.4212 58.9874 23.7012 61.3774 24.1512 63.7274C22.0512 63.6074 20.3712 61.2674 19.5312 59.5374ZM52.9212 85.6274C48.9012 85.9474 43.5212 86.0174 39.6612 84.8674C33.7812 83.1174 30.8512 77.1274 28.8312 71.8074C25.5612 63.1674 24.8012 53.9374 26.1512 44.8474C26.3412 44.6674 26.4812 44.4274 26.5212 44.1174C26.7212 42.3574 27.0912 40.6274 27.5812 38.9274C37.0512 42.8374 48.7212 40.8074 58.2312 37.4174C60.2612 36.6974 64.6812 34.6774 66.6412 35.3274C68.1012 35.8174 69.2112 38.6774 69.3112 39.7874C69.3812 40.5874 68.8712 41.8374 68.7512 42.6574C68.3212 45.7574 68.4012 48.9174 69.1512 51.9674C69.7912 54.5274 71.2912 58.4874 73.8212 59.1174C72.7912 72.0874 67.9912 84.4174 52.9212 85.6274ZM83.8312 59.9674C82.3212 62.6874 78.8712 65.7174 75.6812 65.7174C76.1712 63.3574 76.4512 60.9574 76.5712 58.5274C76.6712 58.4574 76.7812 58.4174 76.8812 58.3374C78.4012 57.2574 79.3412 55.6874 79.9012 53.8774C80.7512 53.6374 81.7012 53.7174 82.6112 54.2174C84.7712 55.4074 84.9612 57.9274 83.8312 59.9674Z" fill="#1B1D26"/>
<path d="M65.6512 48.6174C64.1312 47.4474 62.1512 47.5774 60.3312 47.6374C58.4512 47.6974 56.5012 47.8274 55.0112 49.0774C54.4312 49.5674 55.2712 50.3974 55.8412 49.9074C57.6812 48.3474 63.1112 48.1274 65.0612 49.6274C65.6612 50.0874 66.2412 49.0674 65.6512 48.6174Z" fill="#1B1D26"/>
<path d="M40.7012 49.8074C37.1912 48.0874 33.3612 47.7774 29.6312 48.9574C28.9112 49.1874 29.2212 50.3174 29.9412 50.0874C33.3712 48.9974 36.8712 49.2274 40.1112 50.8174C40.7812 51.1574 41.3812 50.1374 40.7012 49.8074Z" fill="#1B1D26"/>
<path d="M65.2013 55.8074C64.7613 52.5774 58.8913 52.7874 57.5413 55.0374C57.5013 55.0974 57.4913 55.1574 57.4913 55.2174C57.4413 55.3374 57.4413 55.4874 57.5513 55.6174C58.9313 57.1874 60.3913 58.0274 62.5113 57.7274C63.5113 57.5874 65.3813 57.1674 65.2013 55.8074ZM58.2813 55.3074C58.6513 54.8274 59.4313 54.4774 60.3113 54.3074C60.0513 54.8974 59.9213 55.6574 60.1413 56.2474C60.2713 56.5974 60.4913 56.8374 60.7413 56.9974C60.7213 56.9974 60.6913 56.9874 60.6713 56.9874C59.6713 56.7474 58.9313 56.0374 58.2813 55.3074ZM64.1513 55.9874C63.9913 56.7474 62.9013 57.0274 61.9213 57.0674C62.2513 56.9174 62.5313 56.6374 62.6713 56.1874C62.8413 55.6074 62.8113 54.9174 62.5313 54.3774C62.5113 54.3274 62.4713 54.2874 62.4413 54.2374C63.5413 54.4174 64.3713 54.9674 64.1513 55.9874Z" fill="#1B1D26"/>
<path d="M34.4912 57.7275C36.6212 58.0275 38.0812 57.1875 39.4512 55.6175C39.5612 55.4875 39.5712 55.3375 39.5112 55.2175C39.5112 55.1575 39.5012 55.0975 39.4612 55.0375C38.1012 52.7775 32.2412 52.5775 31.8012 55.8075C31.6212 57.1675 33.4912 57.5875 34.4912 57.7275ZM36.3512 56.9675C36.3312 56.9775 36.3012 56.9775 36.2812 56.9775C36.5312 56.8175 36.7512 56.5775 36.8812 56.2275C37.1012 55.6375 36.9712 54.8775 36.7112 54.2875C37.5912 54.4675 38.3712 54.8075 38.7412 55.2875C38.0712 56.0375 37.3312 56.7475 36.3512 56.9675ZM34.5712 54.2375C34.5412 54.2875 34.5112 54.3275 34.4812 54.3775C34.2012 54.9175 34.1612 55.6075 34.3412 56.1875C34.4712 56.6275 34.7612 56.9175 35.0912 57.0675C34.1012 57.0275 33.0212 56.7475 32.8612 55.9875C32.6412 54.9675 33.4612 54.4175 34.5712 54.2375Z" fill="#1B1D26"/>
<path d="M47.6012 64.7875C47.5712 65.1175 47.4512 67.3675 47.0212 67.6275C47.0912 67.5875 46.7712 65.3475 46.7912 64.9275C46.8712 63.0575 47.4312 61.1875 47.8412 59.3675C48.0012 58.6275 46.8712 58.3175 46.7112 59.0575C46.3112 60.8775 45.7612 62.7375 45.6412 64.6075C45.5712 65.6975 45.4612 67.6675 46.2012 68.5675C48.0012 70.7775 48.7312 65.5975 48.8012 64.7775C48.8312 64.0275 47.6612 64.0375 47.6012 64.7875Z" fill="#1B1D26"/>
<path d="M54.6212 72.1074C53.0412 73.3174 51.3712 74.2874 49.3512 74.5374C47.4112 74.7674 44.1512 74.4674 42.6812 72.9374C42.1612 72.3874 41.3312 73.2174 41.8512 73.7674C43.3812 75.3574 46.1012 75.7574 48.2212 75.7874C50.8612 75.8274 53.1512 74.7074 55.2112 73.1274C55.8112 72.6674 55.2312 71.6474 54.6212 72.1074Z" fill="#1B1D26"/>
<path d="M65.5312 61.2374C65.3112 61.0074 65.0812 60.7774 64.8612 60.5374C64.3312 59.9974 63.5012 60.8274 64.0312 61.3674C64.2512 61.5974 64.4812 61.8274 64.7012 62.0674C65.2212 62.6174 66.0512 61.7874 65.5312 61.2374Z" fill="#1B1D26"/>
<path d="M67.7312 60.6174C67.6612 60.4574 67.6012 60.2874 67.5312 60.1274C67.2512 59.4374 66.1212 59.7374 66.4012 60.4374C66.4712 60.5974 66.5312 60.7674 66.6012 60.9274C66.8812 61.6274 68.0212 61.3174 67.7312 60.6174Z" fill="#1B1D26"/>
<path d="M31.1113 60.3574C30.8113 60.6974 30.6012 61.0574 30.4612 61.4974C30.2312 62.2174 31.3613 62.5274 31.5913 61.8074C31.6713 61.5674 31.7713 61.3774 31.9413 61.1874C32.4413 60.6274 31.6113 59.7874 31.1113 60.3574Z" fill="#1B1D26"/>
<path d="M33.4712 61.8475C33.4712 61.9075 33.4712 61.9675 33.4712 62.0275C33.0012 62.6175 33.8312 63.4475 34.3012 62.8575C34.5512 62.5475 34.6912 62.2475 34.6512 61.8375C34.5712 61.1075 33.3912 61.0975 33.4712 61.8475Z" fill="#1B1D26"/>
</svg>
