<svg aria-hidden="true" style="position: absolute; width: 0; height: 0; overflow: hidden;" version="1.1" xmlns="http://www.w3.org/2000/svg" xmlns:xlink="http://www.w3.org/1999/xlink">
<defs>
<symbol id="icon-ava_male" viewBox="0 0 32 32">
<path fill="#e0e0e0" style="fill: var(--color1, #e0e0e0)" d="M32 16c0 8.837-7.163 16-16 16s-16-7.163-16-16c0-8.837 7.163-16 16-16s16 7.163 16 16z"></path>
<path fill="#1b1d26" style="fill: var(--color2, #1b1d26)" d="M27.15 17.326c-0.37-0.944-1.164-1.283-1.92-1.18 0.16-1.227-0.075-2.616-0.279-3.561-0.417-1.933-1.224-4.113-3.112-4.979 0.016-0.1-0.006-0.207-0.107-0.298-1.434-1.321-3.2-1.942-5.129-2.121-1.158-0.107-2.306 0.013-3.464 0.013-1.613-0.003-2.742-0.571-4.223-0.988-3.533-0.994-5.026 3.793-2.949 6.108 0.602 0.671 1.283 1.189 2.014 1.578-0.141 0.467-0.248 0.938-0.326 1.418-0.053 0.044-0.097 0.104-0.113 0.194-0.179 1.057-0.27 2.118-0.27 3.172-0.828-0.402-1.973 0.066-2.055 1.189-0.094 1.286 1.17 2.905 2.516 2.849 0.242 1.020 0.577 2.024 1.013 2.999 1.474 3.285 3.812 3.994 7.26 3.906 2.864-0.072 5.18-1.427 6.604-3.934 0.43-0.753 0.734-1.54 0.954-2.35 1.766 0.207 4.311-2.162 3.586-4.016zM6.127 18.678c-0.179-0.37-0.304-0.891 0.025-1.23 0.417-0.43 0.944-0.132 1.151 0.307 0.044 0.75 0.132 1.5 0.273 2.237-0.659-0.038-1.186-0.772-1.449-1.314zM16.603 26.863c-1.261 0.1-2.949 0.122-4.16-0.238-1.845-0.549-2.764-2.428-3.398-4.097-1.026-2.711-1.264-5.606-0.841-8.458 0.060-0.056 0.104-0.132 0.116-0.229 0.063-0.552 0.179-1.095 0.333-1.628 2.971 1.227 6.632 0.59 9.616-0.474 0.637-0.226 2.024-0.86 2.638-0.656 0.458 0.154 0.806 1.051 0.838 1.399 0.022 0.251-0.138 0.643-0.176 0.9-0.135 0.973-0.11 1.964 0.125 2.921 0.201 0.803 0.671 2.046 1.465 2.243-0.323 4.069-1.829 7.937-6.557 8.317zM26.3 18.813c-0.474 0.853-1.556 1.804-2.557 1.804 0.154-0.74 0.242-1.493 0.279-2.256 0.031-0.022 0.066-0.035 0.097-0.060 0.477-0.339 0.772-0.831 0.947-1.399 0.267-0.075 0.565-0.050 0.85 0.107 0.678 0.373 0.737 1.164 0.383 1.804z"></path>
<path fill="#1b1d26" style="fill: var(--color2, #1b1d26)" d="M20.596 15.253c-0.477-0.367-1.098-0.326-1.669-0.307-0.59 0.019-1.202 0.060-1.669 0.452-0.182 0.154 0.082 0.414 0.26 0.26 0.577-0.489 2.281-0.558 2.893-0.088 0.188 0.144 0.37-0.176 0.185-0.317z"></path>
<path fill="#1b1d26" style="fill: var(--color2, #1b1d26)" d="M12.769 15.626c-1.101-0.54-2.303-0.637-3.473-0.267-0.226 0.072-0.129 0.427 0.097 0.354 1.076-0.342 2.174-0.27 3.191 0.229 0.21 0.107 0.398-0.213 0.185-0.317z"></path>
<path fill="#1b1d26" style="fill: var(--color2, #1b1d26)" d="M20.455 17.508c-0.138-1.013-1.98-0.947-2.403-0.242-0.013 0.019-0.016 0.038-0.016 0.056-0.016 0.038-0.016 0.085 0.019 0.125 0.433 0.493 0.891 0.756 1.556 0.662 0.314-0.044 0.9-0.176 0.844-0.602zM18.284 17.351c0.116-0.151 0.361-0.26 0.637-0.314-0.082 0.185-0.122 0.424-0.053 0.609 0.041 0.11 0.11 0.185 0.188 0.235-0.006 0-0.016-0.003-0.022-0.003-0.314-0.075-0.546-0.298-0.75-0.527zM20.126 17.565c-0.050 0.238-0.392 0.326-0.7 0.339 0.104-0.047 0.191-0.135 0.235-0.276 0.053-0.182 0.044-0.398-0.044-0.568-0.006-0.016-0.019-0.028-0.028-0.044 0.345 0.056 0.605 0.229 0.536 0.549z"></path>
<path fill="#1b1d26" style="fill: var(--color2, #1b1d26)" d="M10.821 18.111c0.668 0.094 1.126-0.169 1.556-0.662 0.034-0.041 0.038-0.088 0.019-0.125 0-0.019-0.003-0.038-0.016-0.056-0.427-0.709-2.265-0.772-2.403 0.242-0.056 0.427 0.53 0.558 0.844 0.602zM11.404 17.872c-0.006 0.003-0.016 0.003-0.022 0.003 0.078-0.050 0.147-0.125 0.188-0.235 0.069-0.185 0.028-0.424-0.053-0.609 0.276 0.056 0.521 0.163 0.637 0.314-0.21 0.235-0.442 0.458-0.75 0.527zM10.846 17.016c-0.009 0.016-0.019 0.028-0.028 0.044-0.088 0.169-0.1 0.386-0.044 0.568 0.041 0.138 0.132 0.229 0.235 0.276-0.311-0.013-0.649-0.1-0.7-0.339-0.069-0.32 0.188-0.493 0.536-0.549z"></path>
<path fill="#1b1d26" style="fill: var(--color2, #1b1d26)" d="M14.934 20.326c-0.009 0.104-0.047 0.809-0.182 0.891 0.022-0.013-0.078-0.715-0.072-0.847 0.025-0.587 0.201-1.173 0.329-1.744 0.050-0.232-0.304-0.329-0.354-0.097-0.126 0.571-0.298 1.154-0.336 1.741-0.022 0.342-0.056 0.96 0.176 1.242 0.565 0.693 0.794-0.932 0.816-1.189 0.009-0.235-0.358-0.232-0.376 0.003z"></path>
<path fill="#1b1d26" style="fill: var(--color2, #1b1d26)" d="M17.136 22.622c-0.496 0.38-1.020 0.684-1.653 0.762-0.609 0.072-1.631-0.022-2.093-0.502-0.163-0.173-0.424 0.088-0.26 0.26 0.48 0.499 1.333 0.624 1.998 0.634 0.828 0.013 1.547-0.339 2.193-0.834 0.188-0.144 0.006-0.464-0.185-0.32z"></path>
<path fill="#1b1d26" style="fill: var(--color2, #1b1d26)" d="M20.559 19.212c-0.069-0.072-0.141-0.144-0.21-0.22-0.166-0.169-0.427 0.091-0.26 0.26 0.069 0.072 0.141 0.144 0.21 0.22 0.163 0.173 0.424-0.088 0.26-0.26z"></path>
<path fill="#1b1d26" style="fill: var(--color2, #1b1d26)" d="M21.249 19.017c-0.022-0.050-0.041-0.104-0.063-0.154-0.088-0.216-0.442-0.122-0.355 0.097 0.022 0.050 0.041 0.104 0.063 0.154 0.088 0.22 0.445 0.122 0.355-0.097z"></path>
<path fill="#1b1d26" style="fill: var(--color2, #1b1d26)" d="M9.76 18.936c-0.094 0.107-0.16 0.22-0.204 0.358-0.072 0.226 0.282 0.323 0.355 0.097 0.025-0.075 0.056-0.135 0.11-0.195 0.157-0.176-0.104-0.439-0.26-0.26z"></path>
<path fill="#1b1d26" style="fill: var(--color2, #1b1d26)" d="M10.501 19.403c0 0.019 0 0.038 0 0.056-0.147 0.185 0.113 0.445 0.26 0.26 0.078-0.097 0.122-0.191 0.11-0.32-0.025-0.229-0.395-0.232-0.37 0.003z"></path>
</symbol>

<symbol id="icon-ava_female" viewBox="0 0 32 32">
<path fill="#e0e0e0" style="fill: var(--color1, #e0e0e0)" d="M32 16c0 8.837-7.163 16-16 16s-16-7.163-16-16c0-8.837 7.163-16 16-16s16 7.163 16 16z"></path>
<path fill="#1b1d26" style="fill: var(--color2, #1b1d26)" d="M26.598 16.633c-0.204-1.286-1.302-1.399-2.234-0.894-0.053-0.897-0.141-1.788-0.226-2.66-0.013-0.126-0.075-0.216-0.16-0.273-0.169-2.158-1.776-3.646-3.758-4.48-2.011-0.844-4.58-1.544-6.864-1.456 0.395-2.127-1.794-3.467-3.671-2.438-0.797 0.436-1.82 1.267-1.795 2.268 0.016 0.715 0.442 1.525 1.079 1.895-0.436 0.405-0.825 0.866-1.136 1.396-0.872 1.49-1.255 3.815-0.254 5.343-0.838-0.194-1.71 0.725-1.886 1.6-0.289 1.431 0.762 3.106 2.227 3.385 0.028 0.006 0.050 0 0.075 0 0.245 1.198 0.609 2.378 1.12 3.52 1.474 3.285 3.812 3.994 7.26 3.906 2.864-0.072 5.18-1.427 6.604-3.934 0.75-1.321 1.139-2.745 1.311-4.21 1.371-0.471 2.56-1.368 2.306-2.968zM6.467 18.076c-0.141-0.42-0.132-0.882 0.028-1.299 0.182-0.483 0.715-0.979 1.167-0.558-0.038 1.111 0.025 2.218 0.194 3.31-0.618-0.235-1.192-0.86-1.39-1.453zM16.977 26.979c-1.261 0.1-2.949 0.122-4.16-0.238-1.845-0.549-2.764-2.428-3.398-4.097-0.872-2.303-1.17-4.74-0.985-7.169 0.006-0.025 0.006-0.053 0.006-0.082 0.016-0.21 0.031-0.42 0.056-0.631 0.003-0.006 0.009-0.013 0.016-0.019 0.333-0.511 0.593-1.057 0.778-1.634 1.682 1.252 3.787 1.584 5.851 1.92 2.792 0.452 5.609 0.577 8.433 0.43 0.207 4.985-0.624 11.037-6.598 11.52zM25.858 17.496c-0.195 0.684-0.853 1.051-1.484 1.293 0.050-0.734 0.056-1.471 0.031-2.212 0.013-0.009 0.028-0.016 0.041-0.025 0.326-0.267 0.809-0.527 1.176-0.26 0.333 0.238 0.342 0.831 0.235 1.205z"></path>
<path fill="#f896b2" style="fill: var(--color3, #f896b2)" d="M21.002 21.389c0 0.395-0.392 0.715-0.875 0.715s-0.875-0.32-0.875-0.715c0-0.395 0.392-0.715 0.875-0.715s0.875 0.32 0.875 0.715z"></path>
<path fill="#f896b2" style="fill: var(--color3, #f896b2)" d="M12.707 21.389c0 0.395-0.392 0.715-0.875 0.715s-0.875-0.32-0.875-0.715c0-0.395 0.392-0.715 0.875-0.715s0.875 0.32 0.875 0.715z"></path>
<path fill="#1b1d26" style="fill: var(--color2, #1b1d26)" d="M21.303 16.824c-0.477-0.367-1.098-0.326-1.669-0.307-0.59 0.019-1.202 0.060-1.669 0.452-0.182 0.154 0.082 0.414 0.26 0.26 0.577-0.489 2.281-0.558 2.893-0.088 0.188 0.144 0.373-0.176 0.185-0.317z"></path>
<path fill="#1b1d26" style="fill: var(--color2, #1b1d26)" d="M13.475 17.197c-1.101-0.54-2.303-0.637-3.473-0.267-0.226 0.072-0.129 0.427 0.097 0.355 1.076-0.342 2.174-0.27 3.191 0.229 0.21 0.104 0.398-0.213 0.185-0.317z"></path>
<path fill="#1b1d26" style="fill: var(--color2, #1b1d26)" d="M21.162 19.077c-0.138-1.013-1.98-0.947-2.403-0.242-0.013 0.019-0.016 0.038-0.016 0.056-0.016 0.038-0.016 0.085 0.019 0.125 0.433 0.493 0.891 0.756 1.556 0.662 0.314-0.041 0.904-0.173 0.844-0.602zM18.991 18.923c0.116-0.151 0.361-0.26 0.637-0.314-0.082 0.185-0.122 0.424-0.053 0.609 0.041 0.11 0.11 0.185 0.188 0.235-0.006 0-0.016-0.003-0.022-0.003-0.314-0.075-0.546-0.298-0.75-0.527zM20.832 19.136c-0.050 0.238-0.392 0.326-0.7 0.339 0.104-0.047 0.191-0.135 0.235-0.276 0.053-0.182 0.044-0.398-0.044-0.568-0.006-0.016-0.019-0.028-0.028-0.044 0.345 0.056 0.605 0.226 0.536 0.549z"></path>
<path fill="#1b1d26" style="fill: var(--color2, #1b1d26)" d="M11.53 19.682c0.668 0.094 1.126-0.169 1.556-0.662 0.034-0.041 0.038-0.088 0.019-0.125 0-0.019-0.003-0.038-0.016-0.056-0.427-0.709-2.265-0.772-2.403 0.242-0.060 0.427 0.53 0.558 0.844 0.602zM12.111 19.444c-0.006 0.003-0.016 0.003-0.022 0.003 0.078-0.050 0.147-0.125 0.188-0.235 0.069-0.185 0.028-0.424-0.053-0.609 0.276 0.056 0.521 0.163 0.637 0.314-0.21 0.235-0.442 0.458-0.75 0.527zM11.552 18.587c-0.009 0.016-0.019 0.028-0.028 0.044-0.088 0.169-0.1 0.386-0.044 0.568 0.041 0.138 0.132 0.229 0.235 0.276-0.311-0.013-0.649-0.1-0.7-0.339-0.069-0.323 0.188-0.493 0.536-0.549z"></path>
<path fill="#1b1d26" style="fill: var(--color2, #1b1d26)" d="M15.64 21.894c-0.009 0.104-0.047 0.809-0.182 0.891 0.022-0.013-0.078-0.715-0.072-0.847 0.025-0.587 0.201-1.173 0.329-1.744 0.009-0.038 0.003-0.072-0.009-0.104 0.122-0.831 0.201-1.741-0.59-2.265-0.198-0.132-0.383 0.188-0.185 0.317 0.731 0.483 0.477 1.474 0.37 2.19 0 0.006 0 0.009 0 0.016-0.116 0.489-0.245 0.985-0.279 1.487-0.022 0.342-0.056 0.96 0.176 1.242 0.565 0.693 0.794-0.932 0.816-1.189 0.016-0.229-0.354-0.229-0.373 0.006z"></path>
<path fill="#1b1d26" style="fill: var(--color2, #1b1d26)" d="M21.265 20.783c-0.069-0.072-0.141-0.144-0.21-0.22-0.166-0.169-0.427 0.091-0.26 0.26 0.069 0.072 0.141 0.144 0.21 0.22 0.166 0.173 0.427-0.091 0.26-0.26z"></path>
<path fill="#1b1d26" style="fill: var(--color2, #1b1d26)" d="M21.958 20.589c-0.022-0.050-0.041-0.104-0.063-0.154-0.088-0.216-0.442-0.122-0.355 0.097 0.022 0.050 0.041 0.104 0.063 0.154 0.085 0.216 0.442 0.122 0.355-0.097z"></path>
<path fill="#1b1d26" style="fill: var(--color2, #1b1d26)" d="M10.467 20.507c-0.094 0.107-0.16 0.22-0.204 0.358-0.072 0.226 0.282 0.323 0.354 0.097 0.025-0.075 0.056-0.135 0.11-0.195 0.157-0.176-0.104-0.439-0.26-0.26z"></path>
<path fill="#1b1d26" style="fill: var(--color2, #1b1d26)" d="M11.207 20.975c0 0.019 0 0.038 0 0.056-0.147 0.185 0.113 0.445 0.26 0.26 0.078-0.097 0.122-0.191 0.11-0.32-0.025-0.229-0.392-0.232-0.37 0.003z"></path>
<path fill="#1b1d26" style="fill: var(--color2, #1b1d26)" d="M16.493 24.225c-0.094 0.082-0.204 0.151-0.32 0.21-0.016-0.016-0.035-0.031-0.053-0.038-0.003 0-0.006-0.003-0.009-0.003-0.006-0.003-0.013 0-0.019-0.003-0.078-0.047-0.144-0.11-0.242-0.144-0.116-0.041-0.242-0.060-0.367-0.069-0.107-0.006-0.21-0.003-0.298 0.063-0.022 0.016-0.041 0.035-0.056 0.053-0.097 0.063-0.166 0.16-0.176 0.279-0.003 0.003-0.006 0.009-0.009 0.016-0.075-0.025-0.151-0.056-0.22-0.094-0.207-0.119-0.354 0.22-0.151 0.336 0.129 0.075 0.273 0.119 0.424 0.151-0.003 0.038 0.003 0.075 0.028 0.116 0.135 0.207 0.323 0.405 0.593 0.373 0.267-0.031 0.474-0.351 0.605-0.558 0.019-0.031 0.028-0.066 0.028-0.1 0.173-0.078 0.329-0.179 0.461-0.292 0.179-0.151-0.038-0.449-0.22-0.295z"></path>
</symbol>

<symbol id="icon-shevronDown" viewBox="0 0 32 32">
<path stroke-linejoin="round" stroke-linecap="round" stroke-miterlimit="4" stroke-width="4.5714" d="M2.286 9.143l13.714 13.714 13.714-13.714"></path>
</symbol>

<symbol id="icon-arrowUpRight" viewBox="0 0 32 32">
<path stroke-linejoin="round" stroke-linecap="round" stroke-miterlimit="4" stroke-width="2.6667" d="M9.333 22.667l13.333-13.333"></path>
<path stroke-linejoin="round" stroke-linecap="round" stroke-miterlimit="4" stroke-width="2.6667" d="M22.667 22.667v-13.333h-13.333"></path>
</symbol>

<symbol id="icon-facebook" viewBox="0 0 32 32">
<path stroke-linejoin="round" stroke-linecap="round" stroke-miterlimit="4" stroke-width="1.3333" d="M24 2.667h-4c-1.768 0-3.464 0.702-4.714 1.953s-1.953 2.946-1.953 4.714v4h-4v5.333h4v10.667h5.333v-10.667h4l1.333-5.333h-5.333v-4c0-0.354 0.141-0.693 0.391-0.943s0.589-0.391 0.943-0.391h4v-5.333z"></path>
</symbol>

<symbol id="icon-instagram" viewBox="0 0 32 32">
<path stroke-linejoin="round" stroke-linecap="round" stroke-miterlimit="4" stroke-width="2.6667" d="M22.667 2.667h-13.333c-3.682 0-6.667 2.985-6.667 6.667v13.333c0 3.682 2.985 6.667 6.667 6.667h13.333c3.682 0 6.667-2.985 6.667-6.667v-13.333c0-3.682-2.985-6.667-6.667-6.667z"></path>
<path stroke-linejoin="round" stroke-linecap="round" stroke-miterlimit="4" stroke-width="2.6667" d="M21.333 15.16c0.165 1.11-0.025 2.243-0.542 3.239s-1.334 1.803-2.336 2.308c-1.002 0.504-2.137 0.68-3.245 0.502s-2.131-0.701-2.924-1.494-1.316-1.816-1.494-2.924c-0.178-1.107-0.003-2.243 0.502-3.245s1.312-1.82 2.308-2.336 2.129-0.706 3.239-0.542c1.132 0.168 2.18 0.695 2.989 1.504s1.337 1.857 1.504 2.989z"></path>
<path stroke-linejoin="round" stroke-linecap="round" stroke-miterlimit="4" stroke-width="2.6667" d="M23.333 8.667h0.013"></path>
</symbol>

<symbol id="icon-phone" viewBox="0 0 32 32">
<path stroke-linejoin="round" stroke-linecap="round" stroke-miterlimit="4" stroke-width="2.6667" d="M20.067 6.667c1.302 0.254 2.499 0.891 3.437 1.829s1.575 2.135 1.829 3.437M20.067 1.333c2.706 0.301 5.229 1.512 7.155 3.436s3.141 4.445 3.445 7.151M29.333 22.56v4c0.002 0.371-0.075 0.739-0.223 1.079s-0.367 0.646-0.641 0.897c-0.274 0.251-0.597 0.442-0.948 0.561s-0.725 0.163-1.094 0.13c-4.103-0.446-8.044-1.848-11.507-4.093-3.222-2.047-5.953-4.778-8-8-2.253-3.478-3.656-7.439-4.093-11.56-0.033-0.369 0.010-0.74 0.129-1.091s0.308-0.673 0.558-0.947c0.25-0.273 0.553-0.492 0.892-0.641s0.705-0.227 1.075-0.227h4c0.647-0.006 1.274 0.223 1.765 0.645s0.811 1.008 0.902 1.649c0.169 1.28 0.482 2.537 0.933 3.747 0.179 0.477 0.218 0.996 0.112 1.495s-0.353 0.956-0.712 1.319l-1.693 1.693c1.898 3.338 4.662 6.102 8 8l1.693-1.693c0.363-0.359 0.82-0.606 1.319-0.712s1.017-0.067 1.494 0.112c1.21 0.451 2.467 0.765 3.747 0.933 0.648 0.091 1.239 0.418 1.662 0.917s0.647 1.136 0.631 1.79z"></path>
</symbol>
</defs>
</svg>
