<svg aria-hidden="true" style="position: absolute; width: 0; height: 0; overflow: hidden;" version="1.1" xmlns="http://www.w3.org/2000/svg" xmlns:xlink="http://www.w3.org/1999/xlink">
<defs>
<symbol id="icon-logo" viewBox="0 0 26 32">
<path fill="none" stroke="#e0e0e0" style="stroke: var(--color1, #e0e0e0)" stroke-linejoin="miter" stroke-linecap="butt" stroke-miterlimit="4" stroke-width="1.3714" d="M3.507 13.666c0 0 3.165-1.279 6.353-0.96 3.87 0.387 6.348 3.686 7.97 7.97 1.237 3.268 0.638 9.564 0.638 9.564"></path>
<path fill="none" stroke="#e0e0e0" style="stroke: var(--color1, #e0e0e0)" stroke-linejoin="miter" stroke-linecap="round" stroke-miterlimit="4" stroke-width="1.3714" d="M0.774 1.389h4.144"></path>
<path fill="none" stroke="#e0e0e0" style="stroke: var(--color1, #e0e0e0)" stroke-linejoin="miter" stroke-linecap="round" stroke-miterlimit="4" stroke-width="1.3714" d="M15.598 1.389h5.101"></path>
<path fill="none" stroke="#e0e0e0" style="stroke: var(--color1, #e0e0e0)" stroke-linejoin="miter" stroke-linecap="round" stroke-miterlimit="4" stroke-width="1.3714" d="M3.336 1.866v29.19"></path>
<path fill="none" stroke="#e0e0e0" style="stroke: var(--color1, #e0e0e0)" stroke-linejoin="miter" stroke-linecap="round" stroke-miterlimit="4" stroke-width="1.3714" d="M3.484 30.558h19.765"></path>
<path fill="none" stroke="#e0e0e0" style="stroke: var(--color1, #e0e0e0)" stroke-linejoin="miter" stroke-linecap="round" stroke-miterlimit="4" stroke-width="1.3714" d="M23.249 30.558v-3.826"></path>
<path fill="none" stroke="#e0e0e0" style="stroke: var(--color1, #e0e0e0)" stroke-linejoin="miter" stroke-linecap="round" stroke-miterlimit="4" stroke-width="1.3714" d="M21.814 26.254h2.869"></path>
<path fill="none" stroke="#e0e0e0" style="stroke: var(--color1, #e0e0e0)" stroke-linejoin="miter" stroke-linecap="butt" stroke-miterlimit="4" stroke-width="1.3714" d="M3.507 16.535c0 0 9.854 1.307 13.070-2.232 3.188-3.507 1.571-12.755 1.571-12.755"></path>
<path fill="none" stroke="#e0e0e0" style="stroke: var(--color1, #e0e0e0)" stroke-linejoin="miter" stroke-linecap="butt" stroke-miterlimit="4" stroke-width="1.3714" d="M3.484 21.584h14.664"></path>
<path fill="#e0e0e0" style="fill: var(--color1, #e0e0e0)" d="M2.272 2.517l-1.852 0.903-0.161 0.298h-0.031v-0.949h0.031l0.161 0.207 1.507-0.754-0.107-0.092h-1.4l-0.161 0.302h-0.031v-1.519h0.607l-0.062 0.156v0.621h2.133l0.161-0.302h0.031v1.044h-0.031l-0.028-0.302h-1.032l0.899 0.761 0.161-0.111h0.031v0.666h-0.031l-0.161-0.394-0.635-0.536z"></path>
<path fill="#e0e0e0" style="fill: var(--color1, #e0e0e0)" d="M0.23 4.921h0.283c-0.218-0.065-0.321-0.275-0.321-0.478 0-0.428 0.49-0.658 0.891-0.658 0.325 0 0.524 0.199 0.646 0.474 0.065 0.149 0.080 0.367 0.080 0.52 0 0.046-0.004 0.092-0.008 0.142 0.432-0.004 0.631-0.080 0.631-0.543l-0.344-0.463h0.36c0.027 0.237 0.042 0.471 0.042 0.7 0 0.402-0.233 0.696-0.681 0.696h-1.408l-0.145 0.264h-0.027v-0.654zM1.010 4.921h0.616c0.050-0.126 0.069-0.272 0.069-0.405 0-0.279-0.065-0.398-0.398-0.398-0.31 0-0.96 0.157-0.96 0.509 0 0.038 0.004 0.077 0.019 0.111 0.145 0.138 0.455 0.184 0.654 0.184z"></path>
<path fill="#e0e0e0" style="fill: var(--color1, #e0e0e0)" d="M0.245 6.512l0.348 0.317h-0.333c-0.027-0.107-0.069-0.275-0.069-0.44 0-0.317 0.191-0.471 0.448-0.471h1.756v-0.187h0.057c0 0.241 0.264 0.459 0.578 0.501v0.080h-0.559v0.36h-0.076v-0.36h-1.982c-0.111 0-0.168 0.084-0.168 0.199z"></path>
<path fill="#e0e0e0" style="fill: var(--color1, #e0e0e0)" d="M1.611 8.567v-1.232c-0.402 0-1.247 0.149-1.247 0.677 0 0.031 0.004 0.057 0.011 0.084 0.161 0.134 0.44 0.153 0.643 0.153h0.038v0.306c-0.394-0.076-0.865-0.329-0.865-0.788 0-0.547 0.681-0.761 1.14-0.761 0.478 0 1.178 0.26 1.178 0.819 0 0.444-0.497 0.689-0.899 0.742zM1.687 8.165c0.272-0.069 0.681-0.195 0.681-0.52 0-0.038-0.008-0.077-0.019-0.115-0.157-0.145-0.44-0.187-0.662-0.195v0.83z"></path>
<path fill="#e0e0e0" style="fill: var(--color1, #e0e0e0)" d="M2.368 9.767c0-0.214-0.195-0.367-0.421-0.367h-1.546l-0.145 0.268h-0.027v-0.926h0.027l0.145 0.268h1.813l0.103-0.184h0.031l0.126 0.451v0.122h-0.283c0.226 0.134 0.321 0.314 0.321 0.551 0 0.107-0.046 0.187-0.080 0.241h-0.528l0.463-0.425z"></path>
<path fill="#e0e0e0" style="fill: var(--color1, #e0e0e0)" d="M3.076 11.044c-0.138 0-0.249-0.111-0.249-0.249s0.111-0.249 0.249-0.249 0.249 0.111 0.249 0.249c0 0.138-0.111 0.249-0.249 0.249zM2.318 10.413h0.031l0.122 0.451v0.122h-2.070l-0.145 0.268h-0.027v-0.926h0.027l0.145 0.268h1.813l0.103-0.184z"></path>
<path fill="#e0e0e0" style="fill: var(--color1, #e0e0e0)" d="M0.402 13.112l-0.145 0.264h-0.027v-0.926h0.027l0.145 0.268h1.607c0.218 0 0.36-0.107 0.36-0.318 0-0.214-0.195-0.367-0.421-0.367h-1.546l-0.145 0.268h-0.027v-0.926h0.027l0.145 0.268h1.813l0.103-0.184h0.031l0.122 0.451v0.122h-0.279c0.226 0.134 0.317 0.314 0.317 0.551 0 0.39-0.314 0.528-0.574 0.528h-1.534z"></path>
<path fill="#e0e0e0" style="fill: var(--color1, #e0e0e0)" d="M0.23 14.672h0.283c-0.218-0.065-0.321-0.275-0.321-0.478 0-0.429 0.49-0.658 0.891-0.658 0.325 0 0.524 0.199 0.646 0.474 0.065 0.149 0.080 0.367 0.080 0.52 0 0.046-0.004 0.092-0.008 0.142 0.432-0.004 0.631-0.080 0.631-0.543l-0.344-0.463h0.36c0.027 0.237 0.042 0.47 0.042 0.7 0 0.402-0.233 0.696-0.681 0.696h-1.408l-0.145 0.264h-0.027v-0.654zM1.010 14.672h0.616c0.050-0.126 0.069-0.272 0.069-0.405 0-0.279-0.065-0.398-0.398-0.398-0.31 0-0.96 0.157-0.96 0.509 0 0.038 0.004 0.077 0.019 0.111 0.145 0.138 0.455 0.184 0.654 0.184z"></path>
<path fill="#e0e0e0" style="fill: var(--color1, #e0e0e0)" d="M0 15.539h0.142v1.274h-0.142v-1.274z"></path>
<path fill="#e0e0e0" style="fill: var(--color1, #e0e0e0)" d="M0.245 17.764l0.348 0.318h-0.333c-0.027-0.107-0.069-0.275-0.069-0.44 0-0.318 0.191-0.471 0.448-0.471h1.756v-0.187h0.057c0 0.241 0.264 0.459 0.578 0.501v0.080h-0.559v0.36h-0.076v-0.36h-1.982c-0.111 0-0.168 0.084-0.168 0.199z"></path>
<path fill="#e0e0e0" style="fill: var(--color1, #e0e0e0)" d="M0.23 19.431h0.283c-0.218-0.065-0.321-0.275-0.321-0.478 0-0.428 0.49-0.658 0.891-0.658 0.325 0 0.524 0.199 0.646 0.474 0.065 0.149 0.080 0.367 0.080 0.52 0 0.046-0.004 0.092-0.008 0.142 0.432-0.004 0.631-0.080 0.631-0.543l-0.344-0.463h0.36c0.027 0.237 0.042 0.471 0.042 0.7 0 0.402-0.233 0.696-0.681 0.696h-1.408l-0.145 0.264h-0.027v-0.654zM1.010 19.431h0.616c0.050-0.126 0.069-0.272 0.069-0.405 0-0.279-0.065-0.398-0.398-0.398-0.31 0-0.96 0.157-0.96 0.509 0 0.038 0.004 0.077 0.019 0.111 0.145 0.138 0.455 0.184 0.654 0.184z"></path>
<path fill="#e0e0e0" style="fill: var(--color1, #e0e0e0)" d="M0.245 21.021l0.348 0.318h-0.333c-0.027-0.107-0.069-0.275-0.069-0.44 0-0.318 0.191-0.471 0.448-0.471h1.756v-0.187h0.057c0 0.241 0.264 0.459 0.578 0.501v0.080h-0.559v0.36h-0.076v-0.36h-1.982c-0.111 0-0.168 0.084-0.168 0.199z"></path>
<path fill="#e0e0e0" style="fill: var(--color1, #e0e0e0)" d="M0.245 22.273l0.348 0.318h-0.333c-0.027-0.107-0.069-0.275-0.069-0.44 0-0.318 0.191-0.471 0.448-0.471h1.756v-0.187h0.057c0 0.241 0.264 0.459 0.578 0.501v0.080h-0.559v0.36h-0.076v-0.36h-1.982c-0.111 0-0.168 0.084-0.168 0.199z"></path>
<path fill="#e0e0e0" style="fill: var(--color1, #e0e0e0)" d="M2.51 23.586c0 0.536-0.662 0.761-1.113 0.761-0.482 0-1.205-0.241-1.205-0.819 0-0.551 0.681-0.761 1.136-0.761 0.474 0 1.182 0.256 1.182 0.819zM0.375 23.858c0.157 0.13 0.451 0.157 0.65 0.157 0.367 0 1.343-0.119 1.343-0.608 0-0.034-0.004-0.080-0.019-0.115-0.172-0.157-0.486-0.195-0.712-0.195-0.409 0-1.274 0.149-1.274 0.677 0 0.027 0.004 0.061 0.011 0.084z"></path>
<path fill="#e0e0e0" style="fill: var(--color1, #e0e0e0)" d="M2.51 25.439c0 0.536-0.662 0.761-1.113 0.761-0.482 0-1.205-0.241-1.205-0.819 0-0.551 0.681-0.761 1.136-0.761 0.474 0 1.182 0.256 1.182 0.819zM0.375 25.711c0.157 0.13 0.451 0.157 0.65 0.157 0.367 0 1.343-0.119 1.343-0.608 0-0.034-0.004-0.080-0.019-0.115-0.172-0.157-0.486-0.195-0.712-0.195-0.409 0-1.274 0.149-1.274 0.677 0 0.027 0.004 0.061 0.011 0.084z"></path>
<path fill="#e0e0e0" style="fill: var(--color1, #e0e0e0)" d="M0.23 27.59h0.283c-0.218-0.065-0.321-0.275-0.321-0.478 0-0.428 0.49-0.658 0.891-0.658 0.325 0 0.524 0.199 0.646 0.474 0.065 0.149 0.080 0.367 0.080 0.52 0 0.046-0.004 0.092-0.008 0.142 0.432-0.004 0.631-0.080 0.631-0.543l-0.344-0.463h0.36c0.027 0.237 0.042 0.471 0.042 0.7 0 0.402-0.233 0.696-0.681 0.696h-1.408l-0.145 0.264h-0.027v-0.654zM1.010 27.59h0.616c0.050-0.126 0.069-0.272 0.069-0.405 0-0.279-0.065-0.398-0.398-0.398-0.31 0-0.96 0.157-0.96 0.509 0 0.038 0.004 0.076 0.019 0.111 0.145 0.138 0.455 0.184 0.654 0.184z"></path>
<path fill="#e0e0e0" style="fill: var(--color1, #e0e0e0)" d="M2.368 29.387c0-0.214-0.195-0.367-0.421-0.367h-1.546l-0.145 0.268h-0.027v-0.926h0.027l0.145 0.268h1.813l0.103-0.184h0.031l0.126 0.451v0.122h-0.283c0.226 0.134 0.321 0.314 0.321 0.551 0 0.107-0.046 0.187-0.080 0.241h-0.528l0.463-0.425z"></path>
<path fill="#e0e0e0" style="fill: var(--color1, #e0e0e0)" d="M0.245 30.768l0.348 0.318h-0.333c-0.027-0.107-0.069-0.275-0.069-0.44 0-0.318 0.191-0.471 0.448-0.471h1.756v-0.187h0.057c0 0.241 0.264 0.459 0.578 0.501v0.080h-0.559v0.36h-0.076v-0.36h-1.982c-0.111 0-0.168 0.084-0.168 0.199z"></path>
</symbol>
<symbol id="icon-burger" viewBox="0 0 32 32">
<path fill="none" stroke="#e0e0e0" style="stroke: var(--color1, #e0e0e0)" stroke-linejoin="round" stroke-linecap="round" stroke-miterlimit="4" stroke-width="2.4615" d="M28 13.333h-24"></path>
<path fill="none" stroke="#e0e0e0" style="stroke: var(--color1, #e0e0e0)" stroke-linejoin="round" stroke-linecap="round" stroke-miterlimit="4" stroke-width="2.4615" d="M28 8h-24"></path>
<path fill="none" stroke="#e0e0e0" style="stroke: var(--color1, #e0e0e0)" stroke-linejoin="round" stroke-linecap="round" stroke-miterlimit="4" stroke-width="2.4615" d="M28 18.667h-24"></path>
<path fill="none" stroke="#e0e0e0" style="stroke: var(--color1, #e0e0e0)" stroke-linejoin="round" stroke-linecap="round" stroke-miterlimit="4" stroke-width="2.4615" d="M28 24h-24"></path>
</symbol>
</defs>
</svg>
